<svg xmlns="http://www.w3.org/2000/svg" xmlns:xlink="http://www.w3.org/1999/xlink" width="120" height="120" viewBox="0 0 120 120">
  <defs>
    <style>
      .cls-1 {
        fill: #fff;
        opacity: 0;
        isolation: isolate;
      }

      .cls-2 {
        fill: #ff61f6;
      }

      .cls-3 {
        fill: #2f3857;
      }

      .cls-11, .cls-4 {
        fill: none;
      }

      .cls-4 {
        stroke: #2f3857;
        stroke-linecap: round;
        stroke-linejoin: round;
        stroke-width: 3px;
      }

      .cls-5 {
        fill: #1473e6;
      }

      .cls-6 {
        fill: url(#linear-gradient);
      }

      .cls-7, .cls-8 {
        fill: #f7f7f7;
      }

      .cls-7 {
        stroke: #707070;
      }

      .cls-9 {
        fill: #428fdf;
      }

      .cls-10 {
        stroke: none;
      }
    </style>
    <linearGradient id="linear-gradient" x1="0.5" x2="0.5" y2="1" gradientUnits="objectBoundingBox">
      <stop offset="0" stop-color="#ff61f6"/>
      <stop offset="1" stop-color="#fa0f00"/>
    </linearGradient>
  </defs>
  <g id="Group_175335" data-name="Group 175335" transform="translate(-654 -2288)">
    <g id="Group_174853" data-name="Group 174853" transform="translate(-39 1748)">
      <g id="Group_174852" data-name="Group 174852">
        <rect id="Rectangle_164532" data-name="Rectangle 164532" class="cls-1" width="120" height="120" transform="translate(693 540)"/>
        <path id="Path_104620" data-name="Path 104620" class="cls-2" d="M-1627.556,2016H-1645a7,7,0,0,1-7-7v-56a7,7,0,0,1,7-7h26.382c3.493,0,6.162,1,8.275,3.523l10.407,10.116c1.644,1.667,2.937,3.595,2.937,5.955V2008a8,8,0,0,1-8,8Z" transform="translate(2396 -1367)"/>
        <path id="Path_104619" data-name="Path 104619" class="cls-3" d="M-1632.444,2002H-1646.4a5.6,5.6,0,0,1-5.6-5.6v-44.8a5.6,5.6,0,0,1,5.6-5.6h21.105a7.97,7.97,0,0,1,6.62,2.819l8.326,8.093a6.865,6.865,0,0,1,2.349,4.764V1995.6a6.4,6.4,0,0,1-6.4,6.4Z" transform="translate(2374 -1397)"/>
        <g id="Group_174850" data-name="Group 174850" transform="translate(-4)">
          <line id="Line_6399" data-name="Line 6399" class="cls-4" y1="25.522" transform="translate(802.505 563.104) rotate(90)"/>
          <path id="Path_104013" data-name="Path 104013" class="cls-4" d="M0,8.609,8.4,0l8.4,8.609" transform="translate(803.167 554.817) rotate(90)"/>
        </g>
        <g id="Group_174851" data-name="Group 174851" transform="translate(708.982 626.817)">
          <line id="Line_6399-2" data-name="Line 6399" class="cls-4" y2="25.522" transform="translate(26.185 8.288) rotate(90)"/>
          <path id="Path_104013-2" data-name="Path 104013" class="cls-4" d="M0,0,8.4,8.609,16.8,0" transform="translate(8.609) rotate(90)"/>
        </g>
        <path id="Subtraction_49" data-name="Subtraction 49" class="cls-5" d="M10.25,20.5A10.25,10.25,0,0,1,3,3,10.25,10.25,0,1,1,17.5,17.5,10.183,10.183,0,0,1,10.25,20.5ZM10.5,3.618A2.444,2.444,0,0,0,8.566,4.5,3.572,3.572,0,0,0,7.82,6.834,5.374,5.374,0,0,0,9.076,10.02c0,.568,0,1.059-.6,1.11a4.75,4.75,0,0,0-2.04.816,3.627,3.627,0,0,0-1.616,2.679A.353.353,0,0,0,5.156,15H15.819a.354.354,0,0,0,.353-.35c0-.008,0-.016,0-.025a3.628,3.628,0,0,0-1.616-2.68,4.738,4.738,0,0,0-2.04-.816c-.594-.051-.594-.542-.594-1.11a5.376,5.376,0,0,0,1.256-3.186A3.571,3.571,0,0,0,12.431,4.5,2.444,2.444,0,0,0,10.5,3.618Z" transform="translate(697 549)"/>
        <path id="Intersection_8" data-name="Intersection 8" class="cls-6" d="M27,56V37a7,7,0,0,1,7-7H49V49.6A6.4,6.4,0,0,1,42.6,56Z" transform="translate(717 549)"/>
        <g id="Group_174849" data-name="Group 174849" transform="translate(-95 6)">
          <g id="Ellipse_23751" data-name="Ellipse 23751" class="cls-7" transform="translate(850 603)">
            <circle class="cls-10" cx="16" cy="16" r="16"/>
            <circle class="cls-11" cx="16" cy="16" r="15.5"/>
          </g>
          <path id="Subtraction_50" data-name="Subtraction 50" class="cls-8" d="M18.966,0A18.966,18.966,0,1,1,0,18.966,18.966,18.966,0,0,1,18.966,0Z" transform="translate(847.221 600)"/>
        </g>
        <path id="cursor" class="cls-9" d="M20.549,11.862,12,9.156,8.344.528A.867.867,0,0,0,6.722.594L.046,20.749a.867.867,0,0,0,1.165,1.07L20.63,13.485A.867.867,0,0,0,20.549,11.862Z" transform="matrix(-0.998, 0.07, -0.07, -0.998, 733.272, 618.027)"/>
      </g>
    </g>
    <path id="Path_104623" data-name="Path 104623" class="cls-2" d="M21.362,22.061a.654.654,0,0,0,.659-.648q0-.023,0-.045c-.435-4.728-5.283-6.339-6.764-6.468-1.083-.094-1.1-.966-1.1-2.053a9.892,9.892,0,0,0,2.325-5.9C16.48,3.381,14.449,1,11.523,1S6.566,3.381,6.566,6.951a9.892,9.892,0,0,0,2.325,5.9c0,1.087-.017,1.959-1.1,2.053-1.481.132-6.329,1.739-6.764,6.468a.654.654,0,0,0,.613.692H21.362Z" transform="translate(721.123 2359.694)"/>
  </g>
</svg>
